<svg xmlns="http://www.w3.org/2000/svg" version="1.1" xmlns:xlink="http://www.w3.org/1999/xlink" xmlns:svgjs="http://svgjs.dev/svgjs" width="1500" height="1500" viewBox="0 0 1500 1500"><rect width="1500" height="1500" fill="#ffffff"></rect><g transform="matrix(0.43994720633523976,0,0,0.43994720633523976,420.65439739621644,250.4048582995951)"><svg viewBox="0 0 163 247" data-background-color="#000000" preserveAspectRatio="xMidYMid meet" height="2273" width="1500" xmlns="http://www.w3.org/2000/svg" xmlns:xlink="http://www.w3.org/1999/xlink"><g id="tight-bounds" transform="matrix(1,0,0,1,-0.15185572060053687,-0.09999999999999432)"><svg viewBox="0 0 163.30371144120107 247.2" height="247.2" width="163.30371144120107"><g><svg viewBox="0 0 341.1220338983051 516.3714041491526" height="247.2" width="163.30371144120107"><g transform="matrix(1,0,0,1,0,269.1714041491525)"><svg viewBox="0 0 341.1220338983051 247.2" height="247.2" width="341.1220338983051"><g id="textblocktransform"><svg viewBox="0 0 341.1220338983051 247.2" height="247.2" width="341.1220338983051" id="textblock"><g><svg viewBox="0 0 341.1220338983051 247.2" height="247.2" width="341.1220338983051"><g transform="matrix(1,0,0,1,0,0)"><svg width="341.1220338983051" viewBox="4.5 -35.4 48.85 35.4" height="247.2" data-palette-color="url(#18c632d1-b8e7-48cc-adfc-3c7421a91daf)"></svg></g></svg></g></svg></g></svg></g><g transform="matrix(1,0,0,1,65.15430847457628,0)"><svg viewBox="0 0 210.81341694915255 210.81341694915255" height="210.81341694915255" width="210.81341694915255"><g><svg xmlns="http://www.w3.org/2000/svg" xmlns:xlink="http://www.w3.org/1999/xlink" version="1.1" x="0" y="0" viewBox="8 8 84 84" enable-background="new 0 0 100 100" xml:space="preserve" height="210.81341694915255" width="210.81341694915255" class="icon-icon-0" data-fill-palette-color="accent" id="icon-0"></svg></g></svg></g><g></g></svg></g><defs></defs><mask id="2d7e2b61-6998-426f-9550-118ec7909e98"><g id="SvgjsG1013"><svg viewBox="0 0 163.30371144120107 247.2" height="247.2" width="163.30371144120107"><g><svg viewBox="0 0 341.1220338983051 516.3714041491526" height="247.2" width="163.30371144120107"><g transform="matrix(1,0,0,1,0,269.1714041491525)"><svg viewBox="0 0 341.1220338983051 247.2" height="247.2" width="341.1220338983051"><g id="SvgjsG1012"><svg viewBox="0 0 341.1220338983051 247.2" height="247.2" width="341.1220338983051" id="SvgjsSvg1011"><g><svg viewBox="0 0 341.1220338983051 247.2" height="247.2" width="341.1220338983051"><g transform="matrix(1,0,0,1,0,0)"><svg width="341.1220338983051" viewBox="4.5 -35.4 48.85 35.4" height="247.2" data-palette-color="url(#18c632d1-b8e7-48cc-adfc-3c7421a91daf)"><path d="M25.3 0L4.5 0 4.5-35 9.25-35 9.25-4.25 25.3-4.25 25.3 0ZM34.8 0L30.05 0 30.05-34.9Q32.1-35.15 34.57-35.27 37.05-35.4 39.7-35.4L39.7-35.4Q44.05-35.4 47.1-34.02 50.15-32.65 51.75-30.25 53.35-27.85 53.35-24.75L53.35-24.75Q53.35-21 51.5-18.4 49.65-15.8 46.35-14.43 43.05-13.05 38.7-13.05L38.7-13.05Q36.6-13.05 34.8-13.2L34.8-13.2 34.8 0ZM39.3-17L39.3-17Q43.75-17 46.2-19 48.65-21 48.65-24.35L48.65-24.35Q48.65-27.6 46.3-29.5 43.95-31.4 39.6-31.4L39.6-31.4Q38.25-31.4 37.05-31.35 35.85-31.3 34.8-31.2L34.8-31.2 34.8-17.25Q35.6-17.15 36.75-17.07 37.9-17 39.3-17Z" opacity="1" transform="matrix(1,0,0,1,0,0)" fill="white" class="wordmark-text-0" id="SvgjsPath1010"></path></svg></g></svg></g></svg></g></svg></g><g transform="matrix(1,0,0,1,65.15430847457628,0)"><svg viewBox="0 0 210.81341694915255 210.81341694915255" height="210.81341694915255" width="210.81341694915255"><g><svg xmlns="http://www.w3.org/2000/svg" xmlns:xlink="http://www.w3.org/1999/xlink" version="1.1" x="0" y="0" viewBox="8 8 84 84" enable-background="new 0 0 100 100" xml:space="preserve" height="210.81341694915255" width="210.81341694915255" class="icon-icon-0" data-fill-palette-color="accent" id="SvgjsSvg1009"><path fill="black" d="M49.99 78C34.557 77.977 22 65.416 22 50A2 2 0 0 0 18 50C18 67.618 32.348 81.973 49.984 82H49.987A2 2 0 0 0 49.99 78"></path><path fill="black" d="M49.987 18A2 2 0 0 0 49.987 22C64.818 22 76.828 33.668 77.924 49.141A2 2 0 1 0 81.914 48.858C80.668 31.267 66.943 18 49.987 18"></path><path fill="black" d="M49.995 67C40.624 66.985 33 59.359 33 50A2 2 0 0 0 29 50C29 61.562 38.416 70.982 49.989 71H49.992A2 2 0 0 0 49.995 67"></path><path fill="black" d="M49.992 29A2 2 0 0 0 49.992 33C59.129 33 66.593 40.503 66.986 50.082A2 2 0 0 0 68.983 52C69.011 52 69.039 52 69.066 51.998A2 2 0 0 0 70.983 49.918C70.502 38.188 61.282 29 49.992 29"></path><path fill="black" d="M49.998 40C44.486 40.001 40.001 44.488 40 50.001 39.999 55.507 44.481 59.993 49.993 60H50.007C52.788 60 55.464 58.874 57.349 56.91A9.45 9.45 0 0 0 59.993 49.917C59.765 44.356 55.375 40 49.998 40M54.459 54.14C53.324 55.322 52 56 50 56V58L49.994 56C46.686 55.996 43.997 53.305 43.998 50.002A6.01 6.01 0 0 1 49.999 44C53.275 44 55.851 46.614 55.992 50.08A5.48 5.48 0 0 1 54.459 54.14"></path><path fill="black" d="M50 8C27.234 8 8 27.233 8 50S27.234 92 50 92 92 72.767 92 50 72.766 8 50 8M50 88C29.402 88 12 70.598 12 50S29.402 12 50 12 88 29.402 88 50 70.598 88 50 88"></path></svg></g></svg></g><g></g></svg></g><defs><mask></mask></defs></svg><rect width="163.30371144120107" height="247.2" fill="black" stroke="none" visibility="hidden"></rect></g></mask><linearGradient x1="0" x2="1" y1="0.578" y2="0.595" id="18c632d1-b8e7-48cc-adfc-3c7421a91daf"><stop stop-color="#6ee2f5" offset="0"></stop><stop stop-color="#6454f0" offset="1"></stop></linearGradient><rect width="163.30371144120107" height="247.2" fill="#000000" mask="url(#2d7e2b61-6998-426f-9550-118ec7909e98)" data-fill-palette-color="primary"></rect><mask id="b2662850-6b01-4b75-8de8-ba9b7b68847e"><g id="SvgjsG1032"><svg viewBox="0 0 163.30371144120107 247.2" height="247.2" width="163.30371144120107"><g><svg viewBox="0 0 341.1220338983051 516.3714041491526" height="247.2" width="163.30371144120107"><g transform="matrix(1,0,0,1,0,269.1714041491525)"><svg viewBox="0 0 341.1220338983051 247.2" height="247.2" width="341.1220338983051"><g id="SvgjsG1031"><svg viewBox="0 0 341.1220338983051 247.2" height="247.2" width="341.1220338983051" id="SvgjsSvg1030"><g><svg viewBox="0 0 341.1220338983051 247.2" height="247.2" width="341.1220338983051"><g transform="matrix(1,0,0,1,0,0)"><svg width="341.1220338983051" viewBox="4.5 -35.4 48.85 35.4" height="247.2" data-palette-color="url(#18c632d1-b8e7-48cc-adfc-3c7421a91daf)"></svg></g></svg></g></svg></g></svg></g><g transform="matrix(1,0,0,1,65.15430847457628,0)"><svg viewBox="0 0 210.81341694915255 210.81341694915255" height="210.81341694915255" width="210.81341694915255"><g><svg xmlns="http://www.w3.org/2000/svg" xmlns:xlink="http://www.w3.org/1999/xlink" version="1.1" x="0" y="0" viewBox="8 8 84 84" enable-background="new 0 0 100 100" xml:space="preserve" height="210.81341694915255" width="210.81341694915255" class="icon-icon-0" data-fill-palette-color="accent" id="SvgjsSvg1029"><path fill="white" d="M49.99 78C34.557 77.977 22 65.416 22 50A2 2 0 0 0 18 50C18 67.618 32.348 81.973 49.984 82H49.987A2 2 0 0 0 49.99 78"></path><path fill="white" d="M49.987 18A2 2 0 0 0 49.987 22C64.818 22 76.828 33.668 77.924 49.141A2 2 0 1 0 81.914 48.858C80.668 31.267 66.943 18 49.987 18"></path><path fill="white" d="M49.995 67C40.624 66.985 33 59.359 33 50A2 2 0 0 0 29 50C29 61.562 38.416 70.982 49.989 71H49.992A2 2 0 0 0 49.995 67"></path><path fill="white" d="M49.992 29A2 2 0 0 0 49.992 33C59.129 33 66.593 40.503 66.986 50.082A2 2 0 0 0 68.983 52C69.011 52 69.039 52 69.066 51.998A2 2 0 0 0 70.983 49.918C70.502 38.188 61.282 29 49.992 29"></path><path fill="white" d="M49.998 40C44.486 40.001 40.001 44.488 40 50.001 39.999 55.507 44.481 59.993 49.993 60H50.007C52.788 60 55.464 58.874 57.349 56.91A9.45 9.45 0 0 0 59.993 49.917C59.765 44.356 55.375 40 49.998 40M54.459 54.14C53.324 55.322 52 56 50 56V58L49.994 56C46.686 55.996 43.997 53.305 43.998 50.002A6.01 6.01 0 0 1 49.999 44C53.275 44 55.851 46.614 55.992 50.08A5.48 5.48 0 0 1 54.459 54.14"></path><path fill="white" d="M50 8C27.234 8 8 27.233 8 50S27.234 92 50 92 92 72.767 92 50 72.766 8 50 8M50 88C29.402 88 12 70.598 12 50S29.402 12 50 12 88 29.402 88 50 70.598 88 50 88"></path></svg></g></svg></g><g></g></svg></g><defs><mask></mask></defs><mask><g id="SvgjsG1028"><svg viewBox="0 0 163.30371144120107 247.2" height="247.2" width="163.30371144120107"><g><svg viewBox="0 0 341.1220338983051 516.3714041491526" height="247.2" width="163.30371144120107"><g transform="matrix(1,0,0,1,0,269.1714041491525)"><svg viewBox="0 0 341.1220338983051 247.2" height="247.2" width="341.1220338983051"><g id="SvgjsG1027"><svg viewBox="0 0 341.1220338983051 247.2" height="247.2" width="341.1220338983051" id="SvgjsSvg1026"><g><svg viewBox="0 0 341.1220338983051 247.2" height="247.2" width="341.1220338983051"><g transform="matrix(1,0,0,1,0,0)"><svg width="341.1220338983051" viewBox="4.5 -35.4 48.85 35.4" height="247.2" data-palette-color="url(#18c632d1-b8e7-48cc-adfc-3c7421a91daf)"><path d="M25.3 0L4.5 0 4.5-35 9.25-35 9.25-4.25 25.3-4.25 25.3 0ZM34.8 0L30.05 0 30.05-34.9Q32.1-35.15 34.57-35.27 37.05-35.4 39.7-35.4L39.7-35.4Q44.05-35.4 47.1-34.02 50.15-32.65 51.75-30.25 53.35-27.85 53.35-24.75L53.35-24.75Q53.35-21 51.5-18.4 49.65-15.8 46.35-14.43 43.05-13.05 38.7-13.05L38.7-13.05Q36.6-13.05 34.8-13.2L34.8-13.2 34.8 0ZM39.3-17L39.3-17Q43.75-17 46.2-19 48.65-21 48.65-24.35L48.65-24.35Q48.65-27.6 46.3-29.5 43.95-31.4 39.6-31.4L39.6-31.4Q38.25-31.4 37.05-31.35 35.85-31.3 34.8-31.2L34.8-31.2 34.8-17.25Q35.6-17.15 36.75-17.07 37.9-17 39.3-17Z" opacity="1" transform="matrix(1,0,0,1,0,0)" fill="black" class="wordmark-text-0" id="SvgjsPath1025"></path></svg></g></svg></g></svg></g></svg></g><g transform="matrix(1,0,0,1,65.15430847457628,0)"><svg viewBox="0 0 210.81341694915255 210.81341694915255" height="210.81341694915255" width="210.81341694915255"><g><svg xmlns="http://www.w3.org/2000/svg" xmlns:xlink="http://www.w3.org/1999/xlink" version="1.1" x="0" y="0" viewBox="8 8 84 84" enable-background="new 0 0 100 100" xml:space="preserve" height="210.81341694915255" width="210.81341694915255" class="icon-icon-0" data-fill-palette-color="accent" id="SvgjsSvg1024"><path fill="black" d="M49.99 78C34.557 77.977 22 65.416 22 50A2 2 0 0 0 18 50C18 67.618 32.348 81.973 49.984 82H49.987A2 2 0 0 0 49.99 78"></path><path fill="black" d="M49.987 18A2 2 0 0 0 49.987 22C64.818 22 76.828 33.668 77.924 49.141A2 2 0 1 0 81.914 48.858C80.668 31.267 66.943 18 49.987 18"></path><path fill="black" d="M49.995 67C40.624 66.985 33 59.359 33 50A2 2 0 0 0 29 50C29 61.562 38.416 70.982 49.989 71H49.992A2 2 0 0 0 49.995 67"></path><path fill="black" d="M49.992 29A2 2 0 0 0 49.992 33C59.129 33 66.593 40.503 66.986 50.082A2 2 0 0 0 68.983 52C69.011 52 69.039 52 69.066 51.998A2 2 0 0 0 70.983 49.918C70.502 38.188 61.282 29 49.992 29"></path><path fill="black" d="M49.998 40C44.486 40.001 40.001 44.488 40 50.001 39.999 55.507 44.481 59.993 49.993 60H50.007C52.788 60 55.464 58.874 57.349 56.91A9.45 9.45 0 0 0 59.993 49.917C59.765 44.356 55.375 40 49.998 40M54.459 54.14C53.324 55.322 52 56 50 56V58L49.994 56C46.686 55.996 43.997 53.305 43.998 50.002A6.01 6.01 0 0 1 49.999 44C53.275 44 55.851 46.614 55.992 50.08A5.48 5.48 0 0 1 54.459 54.14"></path><path fill="black" d="M50 8C27.234 8 8 27.233 8 50S27.234 92 50 92 92 72.767 92 50 72.766 8 50 8M50 88C29.402 88 12 70.598 12 50S29.402 12 50 12 88 29.402 88 50 70.598 88 50 88"></path></svg></g></svg></g><g></g></svg></g><defs><mask></mask></defs></svg><rect width="163.30371144120107" height="247.2" fill="black" stroke="none" visibility="hidden"></rect></g></mask></svg><rect width="163.30371144120107" height="247.2" fill="black" stroke="none" visibility="hidden"></rect></g></mask><linearGradient x1="0" x2="1" y1="0.578" y2="0.595" id="cb8ed0b8-6065-429f-bb4c-12fc3d7cfeb2"><stop stop-color="#6ee2f5" offset="0"></stop><stop stop-color="#6454f0" offset="1"></stop></linearGradient><rect width="163.30371144120107" height="247.2" fill="#000000" mask="url(#b2662850-6b01-4b75-8de8-ba9b7b68847e)" data-fill-palette-color="accent"></rect></svg><rect width="163.30371144120107" height="247.2" fill="none" stroke="none" visibility="hidden"></rect></g></svg></g></svg>